<?xml version="1.0" encoding="utf-8"?>
<!-- Generator: Adobe Illustrator 25.2.1, SVG Export Plug-In . SVG Version: 6.00 Build 0)  -->
<svg version="1.1" id="Layer_1" xmlns="http://www.w3.org/2000/svg" xmlns:xlink="http://www.w3.org/1999/xlink" x="0px" y="0px"
	 viewBox="0 0 1120.34 305.1" style="enable-background:new 0 0 1120.34 305.1;" xml:space="preserve">
<style type="text/css">
	.st0{fill:none;}
</style>
<g>
	<rect class="st0" width="1120.34" height="305.1"/>
</g>
<g>
	<g>
		<rect x="199.72" y="166.44" width="33.29" height="33.29"/>
		<path d="M199.72,66.57h-33.29H99.84c-18.39,0-33.29,14.91-33.29,33.29v66.58c0,18.39,14.91,33.29,33.29,33.29h66.58v-33.29H99.84
			V99.86h66.58v66.58h33.29V99.86V66.57z"/>
	</g>
	<g>
		<path d="M310.72,66.55l-51.18,133.18h25.88l11.42-31.01h51.37l11.42,31.01h26.07L334.31,66.55H310.72z M304.82,147.41l17.89-48.71
			l17.88,48.71H304.82z"/>
		<rect x="389.48" y="66.55" width="23.21" height="133.18"/>
		<path d="M475.86,102.32c-12.75,0-23.21,5.33-28.92,13.51v-11.99h-23.21v134.71h23.21v-49.28c5.33,7.42,15.6,11.99,27.21,11.99
			c28.16,0,46.23-20.17,46.23-49.47C520.38,122.49,503.45,102.32,475.86,102.32z M471.48,181.09c-15.79,0-26.07-11.61-26.07-29.3
			s10.27-29.3,26.07-29.3c15.41,0,25.69,11.61,25.69,29.3S486.89,181.09,471.48,181.09z"/>
		<path d="M582.04,102.32c-13.7,0-24.73,5.9-30.06,16.36V66.55h-23.21v133.18h23.21v-52.32c0-14.08,9.32-24.35,22.26-24.35
			c11.99,0,20.17,9.13,20.17,22.26v54.42h23.21v-59.36C617.62,117.92,603.54,102.32,582.04,102.32z"/>
		<path d="M668.71,102.32c-24.92,0-41.1,14.84-42.24,33.87h20.93c0.38-8.56,7.8-16.36,20.17-16.36c12.37,0,19.6,6.66,19.6,15.98
			c0,3.81-2.28,6.47-7.04,6.47h-17.69c-21.5,0-35.96,11.61-35.96,30.25c0,16.55,12.94,28.73,31.96,28.73
			c13.7,0,24.73-6.28,28.73-15.79v14.27h23.02v-61.64C710.19,116.4,693.07,102.32,668.71,102.32z M687.17,159.21
			c0,14.46-8.56,24.73-23.21,24.73c-8.75,0-14.84-4.95-14.84-12.37c0-8.37,6.66-13.89,16.55-13.89h21.5V159.21z"/>
		<path d="M772.59,102.32c-12.37,0-22.64,5.33-28.16,13.13v-48.9h-23.21v133.18h23.21v-11.99c5.52,8.37,16.17,13.51,27.78,13.51
			c28.73,0,45.66-20.17,45.66-49.47C817.88,122.49,800.94,102.32,772.59,102.32z M768.79,181.09c-15.6,0-25.88-11.61-25.88-29.3
			s10.27-29.3,25.88-29.3s25.88,11.61,25.88,29.3S784.39,181.09,768.79,181.09z"/>
		<path d="M934.88,165.3v-41.86h26.64v-19.6h-26.64V74.92h-23.4v28.92h-7.03h-11.8h-12.17l-22.07,65.83l-22.26-65.83h-23.78
			l35.01,95.89l-13.51,38.82h22.26l14.84-43.38l26.3-71.73h14.22v42.81c0,21.31,13.7,33.49,34.63,33.49h15.41v-19.79h-12.75
			C940.01,179.95,934.88,175,934.88,165.3z"/>
		<path d="M1030.96,167.77c-2.47,9.13-10.27,14.08-22.26,14.08c-14.84,0-24.73-9.89-26.45-25.31h70.78c0.19-1.9,0.38-4.76,0.38-7.99
			c0-22.83-14.46-46.23-46.62-46.23c-31.39,0-46.99,23.78-46.99,49.09c0,25.12,17.5,49.85,48.9,49.85
			c23.59,0,41.48-13.13,45.09-33.49H1030.96z M1006.79,119.82c13.89,0,22.26,9.13,23.21,21.31h-47.19
			C985.29,126.67,993.66,119.82,1006.79,119.82z"/>
	</g>
</g>
</svg>
